<svg width="17" height="17" viewBox="0 0 17 17" fill="none" xmlns="http://www.w3.org/2000/svg">
<path d="M12.7 4.30714C12.44 4.04714 12.02 4.04714 11.76 4.30714L8.49998 7.56047L5.23998 4.30047C4.97998 4.04047 4.55998 4.04047 4.29998 4.30047C4.03998 4.56047 4.03998 4.98047 4.29998 5.24047L7.55998 8.50047L4.29998 11.7605C4.03998 12.0205 4.03998 12.4405 4.29998 12.7005C4.55998 12.9605 4.97998 12.9605 5.23998 12.7005L8.49998 9.44047L11.76 12.7005C12.02 12.9605 12.44 12.9605 12.7 12.7005C12.96 12.4405 12.96 12.0205 12.7 11.7605L9.43998 8.50047L12.7 5.24047C12.9533 4.98714 12.9533 4.56047 12.7 4.30714Z" fill="black" fill-opacity="0.3"/>
</svg>
