<svg width="26" height="26" viewBox="0 0 26 26" fill="none" xmlns="http://www.w3.org/2000/svg">
<path d="M12.7395 2.58398C6.9895 2.58398 2.33325 7.25065 2.33325 13.0007C2.33325 18.7507 6.9895 23.4173 12.7395 23.4173C18.4999 23.4173 23.1666 18.7507 23.1666 13.0007C23.1666 7.25065 18.4999 2.58398 12.7395 2.58398ZM9.10409 8.83398C9.96867 8.83398 10.6666 9.5319 10.6666 10.3965C10.6666 11.2611 9.96867 11.959 9.10409 11.959C8.2395 11.959 7.54159 11.2611 7.54159 10.3965C7.54159 9.5319 8.2395 8.83398 9.10409 8.83398ZM17.6562 15.834C16.7083 17.8652 14.8749 19.2507 12.7499 19.2507C10.6249 19.2507 8.79159 17.8652 7.84367 15.834C7.677 15.4902 7.927 15.084 8.31242 15.084H17.1874C17.5728 15.084 17.8228 15.4902 17.6562 15.834ZM16.3958 11.959C15.5312 11.959 14.8333 11.2611 14.8333 10.3965C14.8333 9.5319 15.5312 8.83398 16.3958 8.83398C17.2603 8.83398 17.9583 9.5319 17.9583 10.3965C17.9583 11.2611 17.2603 11.959 16.3958 11.959Z" fill="white"/>
</svg>
