<svg width="19" height="18" viewBox="0 0 19 18" fill="none" xmlns="http://www.w3.org/2000/svg">
<path d="M9.25 0C4.28 0 0.25 4.03 0.25 9C0.25 13.97 4.28 18 9.25 18C10.08 18 10.75 17.33 10.75 16.5C10.75 16.11 10.6 15.76 10.36 15.49C10.13 15.23 9.98 14.88 9.98 14.5C9.98 13.67 10.65 13 11.48 13H13.25C16.01 13 18.25 10.76 18.25 8C18.25 3.58 14.22 0 9.25 0ZM3.75 9C2.92 9 2.25 8.33 2.25 7.5C2.25 6.67 2.92 6 3.75 6C4.58 6 5.25 6.67 5.25 7.5C5.25 8.33 4.58 9 3.75 9ZM6.75 5C5.92 5 5.25 4.33 5.25 3.5C5.25 2.67 5.92 2 6.75 2C7.58 2 8.25 2.67 8.25 3.5C8.25 4.33 7.58 5 6.75 5ZM11.75 5C10.92 5 10.25 4.33 10.25 3.5C10.25 2.67 10.92 2 11.75 2C12.58 2 13.25 2.67 13.25 3.5C13.25 4.33 12.58 5 11.75 5ZM14.75 9C13.92 9 13.25 8.33 13.25 7.5C13.25 6.67 13.92 6 14.75 6C15.58 6 16.25 6.67 16.25 7.5C16.25 8.33 15.58 9 14.75 9Z" fill="black" fill-opacity="0.9"/>
</svg>
